<svg width="358" height="44" viewBox="0 0 358 44" fill="none" xmlns="http://www.w3.org/2000/svg">
<rect x="0.5" y="0.5" width="357" height="43" rx="21.5" stroke="#2BE7E8"/>
<path d="M20.4372 29.18C19.6692 29.18 18.9552 29.054 18.2952 28.802C17.6352 28.55 17.0652 28.166 16.5852 27.65L17.0892 26.786C17.6172 27.278 18.1452 27.638 18.6732 27.866C19.2132 28.082 19.7832 28.19 20.3832 28.19C21.1152 28.19 21.7092 28.046 22.1652 27.758C22.6212 27.458 22.8492 27.032 22.8492 26.48C22.8492 26.108 22.7352 25.826 22.5072 25.634C22.2912 25.43 21.9732 25.268 21.5532 25.148C21.1452 25.016 20.6532 24.878 20.0772 24.734C19.4292 24.554 18.8832 24.368 18.4392 24.176C18.0072 23.972 17.6772 23.72 17.4492 23.42C17.2332 23.108 17.1252 22.706 17.1252 22.214C17.1252 21.602 17.2752 21.098 17.5752 20.702C17.8872 20.294 18.3072 19.988 18.8352 19.784C19.3752 19.568 19.9752 19.46 20.6352 19.46C21.3552 19.46 21.9912 19.574 22.5432 19.802C23.0952 20.03 23.5452 20.348 23.8932 20.756L23.2992 21.584C22.9632 21.2 22.5612 20.918 22.0932 20.738C21.6372 20.546 21.1272 20.45 20.5632 20.45C20.1792 20.45 19.8132 20.504 19.4652 20.612C19.1172 20.708 18.8292 20.876 18.6012 21.116C18.3852 21.344 18.2772 21.662 18.2772 22.07C18.2772 22.406 18.3612 22.67 18.5292 22.862C18.6972 23.042 18.9492 23.198 19.2852 23.33C19.6212 23.45 20.0352 23.582 20.5272 23.726C21.2352 23.918 21.8532 24.116 22.3812 24.32C22.9092 24.512 23.3172 24.764 23.6052 25.076C23.8932 25.388 24.0372 25.826 24.0372 26.39C24.0372 27.266 23.7072 27.95 23.0472 28.442C22.3872 28.934 21.5172 29.18 20.4372 29.18ZM29.8104 29.18C29.1384 29.18 28.5144 29.054 27.9384 28.802C27.3624 28.538 26.8644 28.184 26.4444 27.74C26.0244 27.284 25.6944 26.762 25.4544 26.174C25.2264 25.586 25.1124 24.956 25.1124 24.284C25.1124 23.408 25.3104 22.604 25.7064 21.872C26.1144 21.14 26.6724 20.558 27.3804 20.126C28.0884 19.682 28.8924 19.46 29.7924 19.46C30.7164 19.46 31.5204 19.682 32.2044 20.126C32.9004 20.57 33.4464 21.158 33.8424 21.89C34.2384 22.61 34.4364 23.402 34.4364 24.266C34.4364 24.362 34.4364 24.458 34.4364 24.554C34.4364 24.638 34.4304 24.704 34.4184 24.752H26.3904C26.4504 25.424 26.6364 26.024 26.9484 26.552C27.2724 27.068 27.6864 27.482 28.1904 27.794C28.7064 28.094 29.2644 28.244 29.8644 28.244C30.4764 28.244 31.0524 28.088 31.5924 27.776C32.1444 27.464 32.5284 27.056 32.7444 26.552L33.8064 26.84C33.6144 27.284 33.3204 27.686 32.9244 28.046C32.5284 28.406 32.0604 28.688 31.5204 28.892C30.9924 29.084 30.4224 29.18 29.8104 29.18ZM26.3544 23.87H33.2844C33.2364 23.186 33.0504 22.586 32.7264 22.07C32.4144 21.554 32.0004 21.152 31.4844 20.864C30.9804 20.564 30.4224 20.414 29.8104 20.414C29.1984 20.414 28.6404 20.564 28.1364 20.864C27.6324 21.152 27.2184 21.56 26.8944 22.088C26.5824 22.604 26.4024 23.198 26.3544 23.87ZM40.4369 28.55C40.3409 28.586 40.1909 28.652 39.9869 28.748C39.7829 28.844 39.5369 28.928 39.2489 29C38.9609 29.072 38.6489 29.108 38.3129 29.108C37.9649 29.108 37.6349 29.042 37.3229 28.91C37.0229 28.778 36.7829 28.58 36.6029 28.316C36.4229 28.04 36.3329 27.704 36.3329 27.308V20.594H35.0369V19.622H36.3329V16.454H37.5569V19.622H39.7169V20.594H37.5569V26.966C37.5809 27.302 37.7009 27.554 37.9169 27.722C38.1449 27.89 38.4029 27.974 38.6909 27.974C39.0269 27.974 39.3329 27.92 39.6089 27.812C39.8849 27.692 40.0529 27.608 40.1129 27.56L40.4369 28.55ZM45.3961 29C45.3961 28.592 45.4321 28.184 45.5041 27.776C45.5761 27.356 45.7141 26.942 45.9181 26.534C46.1221 26.126 46.4221 25.736 46.8181 25.364C47.2141 24.98 47.7361 24.62 48.3841 24.284C48.7321 24.104 49.0921 23.93 49.4641 23.762C49.8361 23.582 50.1841 23.39 50.5081 23.186C50.8441 22.97 51.1081 22.73 51.3001 22.466C51.5041 22.19 51.6061 21.866 51.6061 21.494C51.6061 21.194 51.5161 20.9 51.3361 20.612C51.1681 20.324 50.9041 20.09 50.5441 19.91C50.1961 19.73 49.7581 19.64 49.2301 19.64C48.8461 19.64 48.4981 19.694 48.1861 19.802C47.8741 19.91 47.5981 20.048 47.3581 20.216C47.1181 20.372 46.9141 20.534 46.7461 20.702C46.5781 20.858 46.4401 20.99 46.3321 21.098L45.5581 20.252C45.6181 20.18 45.7501 20.054 45.9541 19.874C46.1701 19.682 46.4401 19.484 46.7641 19.28C47.1001 19.076 47.4901 18.902 47.9341 18.758C48.3901 18.614 48.8881 18.542 49.4281 18.542C50.1601 18.542 50.7841 18.674 51.3001 18.938C51.8281 19.19 52.2301 19.532 52.5061 19.964C52.7821 20.396 52.9201 20.864 52.9201 21.368C52.9201 21.86 52.8121 22.286 52.5961 22.646C52.3921 22.994 52.1221 23.3 51.7861 23.564C51.4621 23.816 51.1201 24.038 50.7601 24.23C50.4121 24.41 50.0941 24.566 49.8061 24.698C49.2421 24.962 48.7681 25.226 48.3841 25.49C48.0001 25.754 47.6941 26.024 47.4661 26.3C47.2381 26.564 47.0581 26.828 46.9261 27.092C46.8061 27.344 46.7221 27.608 46.6741 27.884H53.1181V29H45.3961Z" fill="white"/>
<path d="M119.261 29.25C118.794 29.2633 118.384 29.4033 118.031 29.67C117.684 29.93 117.441 30.29 117.301 30.75V34H116.801V28.8H117.281V30.08C117.461 29.7133 117.701 29.4167 118.001 29.19C118.301 28.9567 118.617 28.8233 118.951 28.79C119.017 28.7833 119.077 28.78 119.131 28.78C119.184 28.78 119.227 28.78 119.261 28.78V29.25ZM121.914 34.1C121.547 34.1 121.207 34.03 120.894 33.89C120.58 33.7433 120.307 33.5467 120.074 33.3C119.847 33.0467 119.667 32.7567 119.534 32.43C119.407 32.0967 119.344 31.7467 119.344 31.38C119.344 30.8867 119.454 30.44 119.674 30.04C119.894 29.64 120.197 29.32 120.584 29.08C120.97 28.8333 121.404 28.71 121.884 28.71C122.377 28.71 122.814 28.8333 123.194 29.08C123.574 29.3267 123.874 29.6533 124.094 30.06C124.32 30.46 124.434 30.9 124.434 31.38C124.434 31.42 124.434 31.46 124.434 31.5C124.434 31.54 124.43 31.5733 124.424 31.6H119.864C119.89 31.9933 120 32.35 120.194 32.67C120.387 32.99 120.634 33.2433 120.934 33.43C121.24 33.61 121.574 33.7 121.934 33.7C122.294 33.7 122.634 33.6067 122.954 33.42C123.274 33.2333 123.497 32.9933 123.624 32.7L124.064 32.82C123.964 33.0667 123.804 33.2867 123.584 33.48C123.37 33.6733 123.117 33.8267 122.824 33.94C122.537 34.0467 122.234 34.1 121.914 34.1ZM119.844 31.21H123.954C123.927 30.8033 123.82 30.4433 123.634 30.13C123.447 29.8167 123.2 29.57 122.894 29.39C122.594 29.21 122.26 29.12 121.894 29.12C121.527 29.12 121.194 29.21 120.894 29.39C120.594 29.57 120.35 29.8167 120.164 30.13C119.977 30.4433 119.87 30.8033 119.844 31.21ZM127.774 34.1C127.327 34.1 126.927 33.9833 126.574 33.75C126.227 33.51 125.947 33.22 125.734 32.88V36.13H125.234V28.8H125.694V29.84C125.907 29.5067 126.19 29.2367 126.544 29.03C126.897 28.8167 127.27 28.71 127.664 28.71C128.03 28.71 128.364 28.7867 128.664 28.94C128.964 29.0867 129.224 29.29 129.444 29.55C129.67 29.8033 129.844 30.09 129.964 30.41C130.09 30.73 130.154 31.0633 130.154 31.41C130.154 31.89 130.054 32.3367 129.854 32.75C129.654 33.1567 129.374 33.4833 129.014 33.73C128.66 33.9767 128.247 34.1 127.774 34.1ZM127.654 33.65C127.96 33.65 128.234 33.5867 128.474 33.46C128.72 33.3333 128.93 33.1633 129.104 32.95C129.277 32.7367 129.41 32.4967 129.504 32.23C129.597 31.9633 129.644 31.69 129.644 31.41C129.644 31.11 129.59 30.8267 129.484 30.56C129.377 30.2867 129.227 30.0467 129.034 29.84C128.847 29.6333 128.627 29.47 128.374 29.35C128.127 29.2233 127.857 29.16 127.564 29.16C127.384 29.16 127.19 29.1967 126.984 29.27C126.784 29.3433 126.59 29.4467 126.404 29.58C126.224 29.7133 126.074 29.8667 125.954 30.04C125.834 30.2067 125.76 30.38 125.734 30.56V32.27C125.854 32.5233 126.007 32.7567 126.194 32.97C126.387 33.1767 126.61 33.3433 126.864 33.47C127.117 33.59 127.38 33.65 127.654 33.65ZM133.267 34.1C132.9 34.1 132.56 34.03 132.247 33.89C131.933 33.7433 131.66 33.5467 131.427 33.3C131.2 33.0467 131.02 32.7567 130.887 32.43C130.76 32.0967 130.697 31.7467 130.697 31.38C130.697 30.8867 130.807 30.44 131.027 30.04C131.247 29.64 131.55 29.32 131.937 29.08C132.323 28.8333 132.757 28.71 133.237 28.71C133.73 28.71 134.167 28.8333 134.547 29.08C134.927 29.3267 135.227 29.6533 135.447 30.06C135.673 30.46 135.787 30.9 135.787 31.38C135.787 31.42 135.787 31.46 135.787 31.5C135.787 31.54 135.783 31.5733 135.777 31.6H131.217C131.243 31.9933 131.353 32.35 131.547 32.67C131.74 32.99 131.987 33.2433 132.287 33.43C132.593 33.61 132.927 33.7 133.287 33.7C133.647 33.7 133.987 33.6067 134.307 33.42C134.627 33.2333 134.85 32.9933 134.977 32.7L135.417 32.82C135.317 33.0667 135.157 33.2867 134.937 33.48C134.723 33.6733 134.47 33.8267 134.177 33.94C133.89 34.0467 133.587 34.1 133.267 34.1ZM131.197 31.21H135.307C135.28 30.8033 135.173 30.4433 134.987 30.13C134.8 29.8167 134.553 29.57 134.247 29.39C133.947 29.21 133.613 29.12 133.247 29.12C132.88 29.12 132.547 29.21 132.247 29.39C131.947 29.57 131.703 29.8167 131.517 30.13C131.33 30.4433 131.223 30.8033 131.197 31.21ZM138.868 33.75C138.834 33.7633 138.768 33.7967 138.668 33.85C138.568 33.9033 138.441 33.9533 138.288 34C138.134 34.04 137.964 34.06 137.778 34.06C137.598 34.06 137.428 34.0267 137.268 33.96C137.114 33.8867 136.991 33.78 136.898 33.64C136.804 33.5 136.758 33.33 136.758 33.13V29.21H136.028V28.8H136.758V27.02H137.258V28.8H138.468V29.21H137.258V33.01C137.271 33.2033 137.341 33.35 137.468 33.45C137.594 33.5433 137.741 33.59 137.908 33.59C138.114 33.59 138.294 33.5567 138.448 33.49C138.601 33.4167 138.691 33.37 138.718 33.35L138.868 33.75ZM139.451 34V28.8H139.951V34H139.451ZM139.451 27.62V26.7H139.951V27.62H139.451ZM143.541 33.75C143.508 33.7633 143.441 33.7967 143.341 33.85C143.241 33.9033 143.115 33.9533 142.961 34C142.808 34.04 142.638 34.06 142.451 34.06C142.271 34.06 142.101 34.0267 141.941 33.96C141.788 33.8867 141.665 33.78 141.571 33.64C141.478 33.5 141.431 33.33 141.431 33.13V29.21H140.701V28.8H141.431V27.02H141.931V28.8H143.141V29.21H141.931V33.01C141.945 33.2033 142.015 33.35 142.141 33.45C142.268 33.5433 142.415 33.59 142.581 33.59C142.788 33.59 142.968 33.5567 143.121 33.49C143.275 33.4167 143.365 33.37 143.391 33.35L143.541 33.75ZM144.124 34V28.8H144.624V34H144.124ZM144.124 27.62V26.7H144.624V27.62H144.124ZM148.075 34.1C147.708 34.1 147.368 34.03 147.055 33.89C146.748 33.75 146.481 33.5567 146.255 33.31C146.028 33.0567 145.851 32.7667 145.725 32.44C145.598 32.1133 145.535 31.77 145.535 31.41C145.535 31.0433 145.598 30.7 145.725 30.38C145.851 30.0533 146.028 29.7667 146.255 29.52C146.488 29.2667 146.758 29.07 147.065 28.93C147.378 28.7833 147.715 28.71 148.075 28.71C148.435 28.71 148.768 28.7833 149.075 28.93C149.381 29.07 149.651 29.2667 149.885 29.52C150.118 29.7667 150.298 30.0533 150.425 30.38C150.551 30.7 150.615 31.0433 150.615 31.41C150.615 31.77 150.551 32.1133 150.425 32.44C150.298 32.7667 150.118 33.0567 149.885 33.31C149.658 33.5567 149.388 33.75 149.075 33.89C148.768 34.03 148.435 34.1 148.075 34.1ZM146.035 31.43C146.035 31.8367 146.125 32.21 146.305 32.55C146.491 32.8833 146.738 33.15 147.045 33.35C147.351 33.55 147.691 33.65 148.065 33.65C148.438 33.65 148.778 33.55 149.085 33.35C149.398 33.1433 149.645 32.87 149.825 32.53C150.011 32.1833 150.105 31.8067 150.105 31.4C150.105 30.9933 150.011 30.62 149.825 30.28C149.645 29.94 149.398 29.67 149.085 29.47C148.778 29.2633 148.441 29.16 148.075 29.16C147.701 29.16 147.361 29.2633 147.055 29.47C146.748 29.6767 146.501 29.95 146.315 30.29C146.128 30.63 146.035 31.01 146.035 31.43ZM155.763 34H155.263V31.1C155.263 30.4333 155.166 29.9467 154.973 29.64C154.786 29.3267 154.486 29.17 154.073 29.17C153.779 29.17 153.489 29.24 153.203 29.38C152.923 29.52 152.676 29.7133 152.463 29.96C152.256 30.2 152.106 30.4733 152.013 30.78V34H151.513V28.8H151.983V30.04C152.123 29.7733 152.309 29.5433 152.543 29.35C152.776 29.15 153.036 28.9933 153.323 28.88C153.609 28.7667 153.906 28.71 154.213 28.71C154.499 28.71 154.739 28.7633 154.933 28.87C155.133 28.97 155.293 29.1167 155.413 29.31C155.539 29.5033 155.629 29.7433 155.683 30.03C155.736 30.3167 155.763 30.6433 155.763 31.01V34ZM158.614 34.1C158.201 34.1 157.818 34.03 157.464 33.89C157.111 33.75 156.801 33.5367 156.534 33.25L156.764 32.9C157.051 33.1733 157.341 33.3733 157.634 33.5C157.928 33.62 158.248 33.68 158.594 33.68C159.041 33.68 159.401 33.5867 159.674 33.4C159.954 33.2133 160.094 32.9533 160.094 32.62C160.094 32.3933 160.028 32.22 159.894 32.1C159.768 31.9733 159.581 31.8733 159.334 31.8C159.094 31.72 158.801 31.6367 158.454 31.55C158.101 31.4567 157.801 31.36 157.554 31.26C157.314 31.16 157.134 31.03 157.014 30.87C156.894 30.71 156.834 30.4933 156.834 30.22C156.834 29.88 156.918 29.6 157.084 29.38C157.258 29.1533 157.488 28.9867 157.774 28.88C158.068 28.7667 158.391 28.71 158.744 28.71C159.151 28.71 159.504 28.7767 159.804 28.91C160.111 29.0433 160.344 29.22 160.504 29.44L160.234 29.76C160.068 29.5467 159.851 29.39 159.584 29.29C159.318 29.1833 159.024 29.13 158.704 29.13C158.464 29.13 158.238 29.1633 158.024 29.23C157.811 29.2967 157.638 29.4067 157.504 29.56C157.378 29.7067 157.314 29.9067 157.314 30.16C157.314 30.36 157.361 30.5167 157.454 30.63C157.554 30.7433 157.701 30.8367 157.894 30.91C158.088 30.9767 158.328 31.05 158.614 31.13C159.021 31.23 159.371 31.3333 159.664 31.44C159.958 31.5467 160.184 31.6867 160.344 31.86C160.504 32.0267 160.584 32.2633 160.584 32.57C160.584 33.0433 160.404 33.4167 160.044 33.69C159.684 33.9633 159.208 34.1 158.614 34.1Z" fill="white"/>
<path d="M227.683 34L225.653 31.22L224.423 32.35V34H223.923V26.7H224.423V31.79L227.593 28.81H228.163L225.993 30.92L228.233 34H227.683ZM228.847 34V28.8H229.347V34H228.847ZM228.847 27.62V26.7H229.347V27.62H228.847ZM230.658 26.7H231.168V32.97C231.168 33.21 231.218 33.3767 231.318 33.47C231.418 33.5567 231.548 33.6 231.708 33.6C231.814 33.6 231.924 33.59 232.038 33.57C232.151 33.55 232.251 33.5233 232.338 33.49L232.438 33.9C232.324 33.94 232.184 33.9767 232.018 34.01C231.851 34.0433 231.708 34.06 231.588 34.06C231.308 34.06 231.081 33.9767 230.908 33.81C230.741 33.6367 230.658 33.4067 230.658 33.12V26.7ZM235.086 34.1C234.719 34.1 234.379 34.03 234.066 33.89C233.759 33.75 233.492 33.5567 233.266 33.31C233.039 33.0567 232.862 32.7667 232.736 32.44C232.609 32.1133 232.546 31.77 232.546 31.41C232.546 31.0433 232.609 30.7 232.736 30.38C232.862 30.0533 233.039 29.7667 233.266 29.52C233.499 29.2667 233.769 29.07 234.076 28.93C234.389 28.7833 234.726 28.71 235.086 28.71C235.446 28.71 235.779 28.7833 236.086 28.93C236.392 29.07 236.662 29.2667 236.896 29.52C237.129 29.7667 237.309 30.0533 237.436 30.38C237.562 30.7 237.626 31.0433 237.626 31.41C237.626 31.77 237.562 32.1133 237.436 32.44C237.309 32.7667 237.129 33.0567 236.896 33.31C236.669 33.5567 236.399 33.75 236.086 33.89C235.779 34.03 235.446 34.1 235.086 34.1ZM233.046 31.43C233.046 31.8367 233.136 32.21 233.316 32.55C233.502 32.8833 233.749 33.15 234.056 33.35C234.362 33.55 234.702 33.65 235.076 33.65C235.449 33.65 235.789 33.55 236.096 33.35C236.409 33.1433 236.656 32.87 236.836 32.53C237.022 32.1833 237.116 31.8067 237.116 31.4C237.116 30.9933 237.022 30.62 236.836 30.28C236.656 29.94 236.409 29.67 236.096 29.47C235.789 29.2633 235.452 29.16 235.086 29.16C234.712 29.16 234.372 29.2633 234.066 29.47C233.759 29.6767 233.512 29.95 233.326 30.29C233.139 30.63 233.046 31.01 233.046 31.43ZM240.624 34.08C240.27 34.08 239.94 34.0067 239.634 33.86C239.334 33.7133 239.074 33.5133 238.854 33.26C238.64 33 238.47 32.7133 238.344 32.4C238.224 32.08 238.164 31.75 238.164 31.41C238.164 31.0567 238.22 30.7167 238.334 30.39C238.454 30.0633 238.62 29.7767 238.834 29.53C239.054 29.2767 239.31 29.0767 239.604 28.93C239.897 28.7833 240.224 28.71 240.584 28.71C241.037 28.71 241.43 28.83 241.764 29.07C242.104 29.3033 242.39 29.59 242.624 29.93V28.8H243.084V34.1C243.084 34.5667 242.97 34.96 242.744 35.28C242.517 35.6 242.217 35.8367 241.844 35.99C241.47 36.15 241.067 36.23 240.634 36.23C240.027 36.23 239.544 36.12 239.184 35.9C238.83 35.68 238.544 35.39 238.324 35.03L238.664 34.8C238.87 35.1467 239.15 35.4033 239.504 35.57C239.857 35.7367 240.234 35.82 240.634 35.82C240.987 35.82 241.31 35.7533 241.604 35.62C241.904 35.4933 242.14 35.3 242.314 35.04C242.494 34.7867 242.584 34.4733 242.584 34.1V32.96C242.377 33.3 242.094 33.5733 241.734 33.78C241.38 33.98 241.01 34.08 240.624 34.08ZM240.744 33.65C240.964 33.65 241.177 33.61 241.384 33.53C241.59 33.45 241.78 33.3433 241.954 33.21C242.127 33.07 242.27 32.9167 242.384 32.75C242.497 32.5833 242.564 32.4167 242.584 32.25V30.54C242.484 30.2733 242.33 30.0367 242.124 29.83C241.924 29.6167 241.697 29.4533 241.444 29.34C241.19 29.22 240.93 29.16 240.664 29.16C240.35 29.16 240.07 29.2267 239.824 29.36C239.577 29.4933 239.367 29.67 239.194 29.89C239.027 30.1033 238.897 30.3467 238.804 30.62C238.717 30.8867 238.674 31.1533 238.674 31.42C238.674 31.72 238.727 32.0033 238.834 32.27C238.94 32.5367 239.087 32.7767 239.274 32.99C239.467 33.1967 239.687 33.36 239.934 33.48C240.187 33.5933 240.457 33.65 240.744 33.65ZM246.807 29.25C246.34 29.2633 245.93 29.4033 245.577 29.67C245.23 29.93 244.987 30.29 244.847 30.75V34H244.347V28.8H244.827V30.08C245.007 29.7133 245.247 29.4167 245.547 29.19C245.847 28.9567 246.163 28.8233 246.497 28.79C246.563 28.7833 246.623 28.78 246.677 28.78C246.73 28.78 246.773 28.78 246.807 28.78V29.25ZM246.986 32.5C246.986 32.1867 247.079 31.9167 247.266 31.69C247.452 31.4567 247.709 31.2767 248.036 31.15C248.362 31.0167 248.739 30.95 249.166 30.95C249.432 30.95 249.709 30.9733 249.996 31.02C250.282 31.0667 250.539 31.13 250.766 31.21V30.72C250.766 30.24 250.626 29.8567 250.346 29.57C250.072 29.2833 249.692 29.14 249.206 29.14C248.946 29.14 248.676 29.1933 248.396 29.3C248.116 29.4067 247.829 29.56 247.536 29.76L247.326 29.4C247.666 29.1733 247.992 29.0033 248.306 28.89C248.626 28.77 248.942 28.71 249.256 28.71C249.876 28.71 250.366 28.8933 250.726 29.26C251.086 29.6267 251.266 30.1267 251.266 30.76V33.34C251.266 33.42 251.282 33.48 251.316 33.52C251.356 33.56 251.412 33.5833 251.486 33.59V34C251.426 34.0067 251.376 34.01 251.336 34.01C251.296 34.01 251.262 34.01 251.236 34.01C251.109 33.99 251.009 33.9367 250.936 33.85C250.869 33.7633 250.832 33.6667 250.826 33.56V33.15C250.586 33.45 250.276 33.6833 249.896 33.85C249.522 34.0167 249.129 34.1 248.716 34.1C248.389 34.1 248.092 34.03 247.826 33.89C247.566 33.75 247.359 33.56 247.206 33.32C247.059 33.0733 246.986 32.8 246.986 32.5ZM250.566 32.93C250.632 32.8433 250.682 32.76 250.716 32.68C250.749 32.6 250.766 32.5267 250.766 32.46V31.6C250.526 31.5067 250.276 31.4367 250.016 31.39C249.756 31.3433 249.489 31.32 249.216 31.32C248.696 31.32 248.272 31.4233 247.946 31.63C247.626 31.8367 247.466 32.1167 247.466 32.47C247.466 32.69 247.522 32.8933 247.636 33.08C247.749 33.2667 247.906 33.4167 248.106 33.53C248.312 33.6433 248.549 33.7 248.816 33.7C249.189 33.7 249.532 33.63 249.846 33.49C250.166 33.3433 250.406 33.1567 250.566 32.93ZM260.127 34H259.627V31.1C259.627 30.44 259.524 29.9533 259.317 29.64C259.117 29.3267 258.807 29.17 258.387 29.17C257.96 29.17 257.58 29.3233 257.247 29.63C256.92 29.93 256.69 30.3167 256.557 30.79V34H256.057V31.1C256.057 30.4333 255.957 29.9467 255.757 29.64C255.557 29.3267 255.247 29.17 254.827 29.17C254.4 29.17 254.02 29.32 253.687 29.62C253.36 29.9133 253.127 30.3 252.987 30.78V34H252.487V28.8H252.957V30.04C253.177 29.6133 253.46 29.2867 253.807 29.06C254.154 28.8267 254.534 28.71 254.947 28.71C255.38 28.71 255.734 28.84 256.007 29.1C256.287 29.3533 256.454 29.6933 256.507 30.12C256.754 29.6533 257.047 29.3033 257.387 29.07C257.727 28.83 258.114 28.71 258.547 28.71C258.834 28.71 259.074 28.7633 259.267 28.87C259.467 28.97 259.63 29.12 259.757 29.32C259.89 29.5133 259.984 29.7533 260.037 30.04C260.097 30.3267 260.127 30.65 260.127 31.01V34Z" fill="white"/>
</svg>
