<svg width="359" height="32" viewBox="0 0 359 32" fill="none" xmlns="http://www.w3.org/2000/svg">
<rect width="358" height="32" rx="16" fill="#2E3562"/>
<rect x="180" width="179" height="32" rx="16" fill="#2BE7E8"/>
<path d="M55.7196 22V9.22H60.1476C61.5156 9.22 62.6556 9.508 63.5676 10.084C64.4916 10.648 65.1816 11.416 65.6376 12.388C66.0936 13.348 66.3216 14.416 66.3216 15.592C66.3216 16.888 66.0696 18.016 65.5656 18.976C65.0616 19.936 64.3476 20.68 63.4236 21.208C62.4996 21.736 61.4076 22 60.1476 22H55.7196ZM64.6836 15.592C64.6836 14.632 64.5036 13.78 64.1436 13.036C63.7956 12.292 63.2856 11.71 62.6136 11.29C61.9416 10.87 61.1196 10.66 60.1476 10.66H57.3396V20.56H60.1476C61.1316 20.56 61.9596 20.344 62.6316 19.912C63.3036 19.468 63.8136 18.874 64.1616 18.13C64.5096 17.374 64.6836 16.528 64.6836 15.592ZM68.0524 22V12.604H69.6364V22H68.0524ZM68.0524 10.84V8.86H69.6364V10.84H68.0524ZM75.1229 22.18C74.3429 22.18 73.6109 22.054 72.9269 21.802C72.2429 21.538 71.6549 21.148 71.1629 20.632L71.7749 19.516C72.3149 20.02 72.8549 20.38 73.3949 20.596C73.9349 20.812 74.4869 20.92 75.0509 20.92C75.6989 20.92 76.2269 20.8 76.6349 20.56C77.0429 20.308 77.2469 19.942 77.2469 19.462C77.2469 19.114 77.1389 18.856 76.9229 18.688C76.7189 18.52 76.4249 18.382 76.0409 18.274C75.6569 18.154 75.2009 18.022 74.6729 17.878C74.0249 17.686 73.4789 17.482 73.0349 17.266C72.5909 17.05 72.2549 16.78 72.0269 16.456C71.7989 16.132 71.6849 15.724 71.6849 15.232C71.6849 14.632 71.8409 14.128 72.1529 13.72C72.4649 13.3 72.8909 12.982 73.4309 12.766C73.9829 12.55 74.6069 12.442 75.3029 12.442C75.9989 12.442 76.6289 12.55 77.1929 12.766C77.7569 12.982 78.2429 13.3 78.6509 13.72L77.9309 14.818C77.5589 14.434 77.1509 14.152 76.7069 13.972C76.2629 13.78 75.7649 13.684 75.2129 13.684C74.8889 13.684 74.5709 13.726 74.2589 13.81C73.9469 13.882 73.6889 14.02 73.4849 14.224C73.2809 14.416 73.1789 14.692 73.1789 15.052C73.1789 15.352 73.2569 15.592 73.4129 15.772C73.5809 15.94 73.8209 16.084 74.1329 16.204C74.4569 16.324 74.8469 16.456 75.3029 16.6C76.0109 16.804 76.6229 17.008 77.1389 17.212C77.6669 17.416 78.0749 17.68 78.3629 18.004C78.6509 18.328 78.7949 18.778 78.7949 19.354C78.7949 20.242 78.4589 20.938 77.7869 21.442C77.1149 21.934 76.2269 22.18 75.1229 22.18ZM84.5479 22.18C83.8399 22.18 83.1919 22.054 82.6039 21.802C82.0279 21.538 81.5239 21.178 81.0919 20.722C80.6719 20.266 80.3419 19.744 80.1019 19.156C79.8739 18.568 79.7599 17.944 79.7599 17.284C79.7599 16.396 79.9579 15.586 80.3539 14.854C80.7499 14.122 81.3079 13.54 82.0279 13.108C82.7479 12.664 83.5819 12.442 84.5299 12.442C85.4539 12.442 86.2579 12.652 86.9419 13.072C87.6379 13.48 88.1539 14.032 88.4899 14.728L86.9419 15.214C86.7019 14.77 86.3659 14.428 85.9339 14.188C85.5019 13.936 85.0219 13.81 84.4939 13.81C83.9179 13.81 83.3899 13.96 82.9099 14.26C82.4419 14.56 82.0699 14.974 81.7939 15.502C81.5179 16.018 81.3799 16.612 81.3799 17.284C81.3799 17.944 81.5179 18.544 81.7939 19.084C82.0819 19.612 82.4599 20.032 82.9279 20.344C83.4079 20.656 83.9359 20.812 84.5119 20.812C84.8839 20.812 85.2379 20.746 85.5739 20.614C85.9219 20.482 86.2219 20.308 86.4739 20.092C86.7379 19.864 86.9179 19.618 87.0139 19.354L88.5619 19.822C88.3699 20.278 88.0759 20.686 87.6799 21.046C87.2959 21.394 86.8339 21.67 86.2939 21.874C85.7659 22.078 85.1839 22.18 84.5479 22.18ZM94.0728 22.18C93.3648 22.18 92.7228 22.054 92.1468 21.802C91.5708 21.538 91.0728 21.184 90.6528 20.74C90.2328 20.284 89.9088 19.762 89.6808 19.174C89.4528 18.586 89.3388 17.968 89.3388 17.32C89.3388 16.66 89.4528 16.036 89.6808 15.448C89.9088 14.86 90.2328 14.344 90.6528 13.9C91.0728 13.444 91.5708 13.09 92.1468 12.838C92.7348 12.574 93.3768 12.442 94.0728 12.442C94.7808 12.442 95.4228 12.574 95.9988 12.838C96.5748 13.09 97.0728 13.444 97.4928 13.9C97.9248 14.344 98.2548 14.86 98.4828 15.448C98.7108 16.036 98.8248 16.66 98.8248 17.32C98.8248 17.968 98.7108 18.586 98.4828 19.174C98.2548 19.762 97.9308 20.284 97.5108 20.74C97.0908 21.184 96.5868 21.538 95.9988 21.802C95.4228 22.054 94.7808 22.18 94.0728 22.18ZM90.9588 17.338C90.9588 17.986 91.0968 18.574 91.3728 19.102C91.6608 19.63 92.0388 20.05 92.5068 20.362C92.9748 20.662 93.4968 20.812 94.0728 20.812C94.6488 20.812 95.1708 20.656 95.6388 20.344C96.1188 20.032 96.4968 19.612 96.7728 19.084C97.0608 18.544 97.2048 17.95 97.2048 17.302C97.2048 16.654 97.0608 16.066 96.7728 15.538C96.4968 15.01 96.1188 14.59 95.6388 14.278C95.1708 13.966 94.6488 13.81 94.0728 13.81C93.4968 13.81 92.9748 13.972 92.5068 14.296C92.0388 14.608 91.6608 15.028 91.3728 15.556C91.0968 16.084 90.9588 16.678 90.9588 17.338ZM102.828 22L99.1378 12.604H100.794L103.746 20.488L106.698 12.604H108.246L104.556 22H102.828ZM113.373 22.18C112.665 22.18 112.017 22.054 111.429 21.802C110.853 21.538 110.349 21.184 109.917 20.74C109.497 20.284 109.167 19.762 108.927 19.174C108.699 18.586 108.585 17.962 108.585 17.302C108.585 16.414 108.789 15.604 109.197 14.872C109.605 14.14 110.169 13.552 110.889 13.108C111.621 12.664 112.455 12.442 113.391 12.442C114.339 12.442 115.161 12.67 115.857 13.126C116.565 13.57 117.111 14.158 117.495 14.89C117.891 15.61 118.089 16.39 118.089 17.23C118.089 17.35 118.083 17.47 118.071 17.59C118.071 17.698 118.065 17.782 118.053 17.842H110.259C110.307 18.454 110.475 19 110.763 19.48C111.063 19.948 111.447 20.32 111.915 20.596C112.383 20.86 112.887 20.992 113.427 20.992C114.003 20.992 114.543 20.848 115.047 20.56C115.563 20.272 115.917 19.894 116.109 19.426L117.477 19.804C117.273 20.26 116.967 20.668 116.559 21.028C116.163 21.388 115.689 21.67 115.137 21.874C114.597 22.078 114.009 22.18 113.373 22.18ZM110.205 16.744H116.613C116.565 16.132 116.391 15.592 116.091 15.124C115.791 14.656 115.407 14.29 114.939 14.026C114.471 13.762 113.955 13.63 113.391 13.63C112.839 13.63 112.329 13.762 111.861 14.026C111.393 14.29 111.009 14.656 110.709 15.124C110.421 15.592 110.253 16.132 110.205 16.744ZM124.517 13.99C123.725 14.002 123.023 14.206 122.411 14.602C121.811 14.986 121.385 15.52 121.133 16.204V22H119.549V12.604H121.025V14.782C121.349 14.134 121.775 13.612 122.303 13.216C122.843 12.808 123.407 12.58 123.995 12.532C124.115 12.532 124.217 12.532 124.301 12.532C124.385 12.532 124.457 12.538 124.517 12.55V13.99Z" fill="white"/>
<path d="M229.688 22V12.244L225.476 19.75H224.486L220.256 12.244V22H218.636V9.22H220.346L224.972 17.518L229.616 9.22H231.308V22H229.688ZM234.249 24.556C234.405 24.568 234.561 24.58 234.717 24.592C234.873 24.616 234.993 24.628 235.077 24.628C235.269 24.628 235.437 24.562 235.581 24.43C235.725 24.298 235.881 24.04 236.049 23.656C236.229 23.284 236.457 22.732 236.733 22L232.755 12.604H234.429L237.597 20.398L240.459 12.604H242.025L237.453 24.466C237.345 24.742 237.183 25 236.967 25.24C236.763 25.492 236.499 25.69 236.175 25.834C235.851 25.978 235.461 26.05 235.005 26.05C234.897 26.05 234.783 26.044 234.663 26.032C234.555 26.02 234.417 25.996 234.249 25.96V24.556ZM258.348 12.604H259.878L255.882 22H254.496L252.678 17.572L250.878 22H249.492L245.496 12.604H247.008L250.248 20.434L251.76 16.582L250.176 12.622H251.562L252.678 15.61L253.794 12.622H255.18L253.614 16.582L255.126 20.434L258.348 12.604ZM264.847 22.18C264.139 22.18 263.497 22.054 262.921 21.802C262.345 21.538 261.847 21.184 261.427 20.74C261.007 20.284 260.683 19.762 260.455 19.174C260.227 18.586 260.113 17.968 260.113 17.32C260.113 16.66 260.227 16.036 260.455 15.448C260.683 14.86 261.007 14.344 261.427 13.9C261.847 13.444 262.345 13.09 262.921 12.838C263.509 12.574 264.151 12.442 264.847 12.442C265.555 12.442 266.197 12.574 266.773 12.838C267.349 13.09 267.847 13.444 268.267 13.9C268.699 14.344 269.029 14.86 269.257 15.448C269.485 16.036 269.599 16.66 269.599 17.32C269.599 17.968 269.485 18.586 269.257 19.174C269.029 19.762 268.705 20.284 268.285 20.74C267.865 21.184 267.361 21.538 266.773 21.802C266.197 22.054 265.555 22.18 264.847 22.18ZM261.733 17.338C261.733 17.986 261.871 18.574 262.147 19.102C262.435 19.63 262.813 20.05 263.281 20.362C263.749 20.662 264.271 20.812 264.847 20.812C265.423 20.812 265.945 20.656 266.413 20.344C266.893 20.032 267.271 19.612 267.547 19.084C267.835 18.544 267.979 17.95 267.979 17.302C267.979 16.654 267.835 16.066 267.547 15.538C267.271 15.01 266.893 14.59 266.413 14.278C265.945 13.966 265.423 13.81 264.847 13.81C264.271 13.81 263.749 13.972 263.281 14.296C262.813 14.608 262.435 15.028 262.147 15.556C261.871 16.084 261.733 16.678 261.733 17.338ZM276.186 13.99C275.394 14.002 274.692 14.206 274.08 14.602C273.48 14.986 273.054 15.52 272.802 16.204V22H271.218V12.604H272.694V14.782C273.018 14.134 273.444 13.612 273.972 13.216C274.512 12.808 275.076 12.58 275.664 12.532C275.784 12.532 275.886 12.532 275.97 12.532C276.054 12.532 276.126 12.538 276.186 12.55V13.99ZM284.081 22L280.823 17.428L279.041 19.102V22H277.457V8.86H279.041V17.446L283.901 12.622H285.611L281.867 16.51L285.791 22H284.081ZM290.472 22.18C289.764 22.18 289.122 22.054 288.546 21.802C287.97 21.538 287.472 21.184 287.052 20.74C286.632 20.284 286.308 19.762 286.08 19.174C285.852 18.586 285.738 17.968 285.738 17.32C285.738 16.66 285.852 16.036 286.08 15.448C286.308 14.86 286.632 14.344 287.052 13.9C287.472 13.444 287.97 13.09 288.546 12.838C289.134 12.574 289.776 12.442 290.472 12.442C291.18 12.442 291.822 12.574 292.398 12.838C292.974 13.09 293.472 13.444 293.892 13.9C294.324 14.344 294.654 14.86 294.882 15.448C295.11 16.036 295.224 16.66 295.224 17.32C295.224 17.968 295.11 18.586 294.882 19.174C294.654 19.762 294.33 20.284 293.91 20.74C293.49 21.184 292.986 21.538 292.398 21.802C291.822 22.054 291.18 22.18 290.472 22.18ZM287.358 17.338C287.358 17.986 287.496 18.574 287.772 19.102C288.06 19.63 288.438 20.05 288.906 20.362C289.374 20.662 289.896 20.812 290.472 20.812C291.048 20.812 291.57 20.656 292.038 20.344C292.518 20.032 292.896 19.612 293.172 19.084C293.46 18.544 293.604 17.95 293.604 17.302C293.604 16.654 293.46 16.066 293.172 15.538C292.896 15.01 292.518 14.59 292.038 14.278C291.57 13.966 291.048 13.81 290.472 13.81C289.896 13.81 289.374 13.972 288.906 14.296C288.438 14.608 288.06 15.028 287.772 15.556C287.496 16.084 287.358 16.678 287.358 17.338ZM296.754 18.238V12.604H298.338V17.932C298.338 18.892 298.506 19.612 298.842 20.092C299.178 20.572 299.676 20.812 300.336 20.812C300.768 20.812 301.182 20.722 301.578 20.542C301.986 20.35 302.352 20.08 302.676 19.732C303 19.384 303.252 18.97 303.432 18.49V12.604H305.016V20.2C305.016 20.392 305.052 20.536 305.124 20.632C305.208 20.716 305.34 20.764 305.52 20.776V22C305.34 22.024 305.196 22.036 305.088 22.036C304.992 22.048 304.896 22.054 304.8 22.054C304.5 22.054 304.242 21.964 304.026 21.784C303.81 21.592 303.696 21.358 303.684 21.082L303.648 19.984C303.24 20.68 302.688 21.22 301.992 21.604C301.308 21.988 300.558 22.18 299.742 22.18C298.758 22.18 298.014 21.85 297.51 21.19C297.006 20.518 296.754 19.534 296.754 18.238ZM312.214 21.532C312.082 21.592 311.902 21.67 311.674 21.766C311.446 21.862 311.182 21.946 310.882 22.018C310.582 22.09 310.264 22.126 309.928 22.126C309.544 22.126 309.19 22.06 308.866 21.928C308.542 21.784 308.284 21.568 308.092 21.28C307.9 20.98 307.804 20.608 307.804 20.164V13.846H306.526V12.604H307.804V9.472H309.388V12.604H311.494V13.846H309.388V19.678C309.412 20.014 309.526 20.266 309.73 20.434C309.934 20.59 310.174 20.668 310.45 20.668C310.762 20.668 311.05 20.614 311.314 20.506C311.578 20.398 311.752 20.32 311.836 20.272L312.214 21.532ZM316.604 22.18C315.824 22.18 315.092 22.054 314.408 21.802C313.724 21.538 313.136 21.148 312.644 20.632L313.256 19.516C313.796 20.02 314.336 20.38 314.876 20.596C315.416 20.812 315.968 20.92 316.532 20.92C317.18 20.92 317.708 20.8 318.116 20.56C318.524 20.308 318.728 19.942 318.728 19.462C318.728 19.114 318.62 18.856 318.404 18.688C318.2 18.52 317.906 18.382 317.522 18.274C317.138 18.154 316.682 18.022 316.154 17.878C315.506 17.686 314.96 17.482 314.516 17.266C314.072 17.05 313.736 16.78 313.508 16.456C313.28 16.132 313.166 15.724 313.166 15.232C313.166 14.632 313.322 14.128 313.634 13.72C313.946 13.3 314.372 12.982 314.912 12.766C315.464 12.55 316.088 12.442 316.784 12.442C317.48 12.442 318.11 12.55 318.674 12.766C319.238 12.982 319.724 13.3 320.132 13.72L319.412 14.818C319.04 14.434 318.632 14.152 318.188 13.972C317.744 13.78 317.246 13.684 316.694 13.684C316.37 13.684 316.052 13.726 315.74 13.81C315.428 13.882 315.17 14.02 314.966 14.224C314.762 14.416 314.66 14.692 314.66 15.052C314.66 15.352 314.738 15.592 314.894 15.772C315.062 15.94 315.302 16.084 315.614 16.204C315.938 16.324 316.328 16.456 316.784 16.6C317.492 16.804 318.104 17.008 318.62 17.212C319.148 17.416 319.556 17.68 319.844 18.004C320.132 18.328 320.276 18.778 320.276 19.354C320.276 20.242 319.94 20.938 319.268 21.442C318.596 21.934 317.708 22.18 316.604 22.18Z" fill="white"/>
</svg>
