<svg width="390" height="44" viewBox="0 0 390 44" fill="none" xmlns="http://www.w3.org/2000/svg">
<path d="M33.3035 22.8809C33.3035 21.7969 33.6697 20.9082 34.4021 20.2148C35.1395 19.5166 36.0818 19.1675 37.2293 19.1675C38.0008 19.1675 38.6844 19.3457 39.2801 19.7021C39.8758 20.0586 40.3519 20.5762 40.7083 21.2549C41.2063 22.1387 41.4554 23.252 41.4554 24.5947C41.4554 26.3721 41.077 27.7612 40.3201 28.7622C39.5633 29.7583 38.5135 30.2563 37.1707 30.2563C36.2039 30.2563 35.3812 29.9951 34.7024 29.4727C34.0237 28.9453 33.6062 28.2471 33.45 27.3779H35.3323C35.4544 27.7783 35.679 28.0957 36.0062 28.3301C36.3382 28.5596 36.7312 28.6743 37.1854 28.6743C37.9568 28.6743 38.5599 28.335 38.9944 27.6562C39.429 26.9727 39.6463 26.0254 39.6463 24.8145H39.5804H39.5437H39.5218C39.2728 25.3174 38.909 25.708 38.4305 25.9863C37.952 26.2598 37.4026 26.3965 36.7825 26.3965C35.7767 26.3965 34.9441 26.0645 34.285 25.4004C33.6307 24.7363 33.3035 23.8965 33.3035 22.8809ZM35.1565 22.8223C35.1565 23.4277 35.3519 23.9258 35.7425 24.3164C36.1331 24.7021 36.6312 24.895 37.2366 24.895C37.8421 24.895 38.3426 24.7021 38.7381 24.3164C39.1336 23.9307 39.3313 23.4424 39.3313 22.8516C39.3313 22.2559 39.1312 21.7554 38.7308 21.3501C38.3304 20.9448 37.8348 20.7422 37.2439 20.7422C36.6531 20.7422 36.1575 20.9424 35.7571 21.3428C35.3567 21.7383 35.1565 22.2314 35.1565 22.8223ZM43.3746 28.9966C43.3746 28.6597 43.4845 28.3838 43.7042 28.1689C43.9239 27.9492 44.2047 27.8394 44.5465 27.8394C44.8932 27.8394 45.1739 27.9492 45.3888 28.1689C45.6085 28.3838 45.7184 28.6597 45.7184 28.9966C45.7184 29.3286 45.6085 29.6045 45.3888 29.8242C45.1739 30.0439 44.8932 30.1538 44.5465 30.1538C44.2047 30.1538 43.9239 30.0439 43.7042 29.8242C43.4845 29.6045 43.3746 29.3286 43.3746 28.9966ZM43.3746 23.5107C43.3746 23.1738 43.4845 22.8979 43.7042 22.6831C43.9239 22.4634 44.2047 22.3535 44.5465 22.3535C44.8932 22.3535 45.1739 22.4634 45.3888 22.6831C45.6085 22.8979 45.7184 23.1738 45.7184 23.5107C45.7184 23.8428 45.6085 24.1187 45.3888 24.3384C45.1739 24.5532 44.8932 24.6606 44.5465 24.6606C44.2047 24.6606 43.9239 24.5532 43.7042 24.3384C43.4845 24.1187 43.3746 23.8428 43.3746 23.5107ZM47.4105 28.0298V26.3452C48.2699 24.7632 49.7055 22.4585 51.7172 19.4312H54.3832V26.4331H55.8114V28.0298H54.3832V30H52.5741V28.0298H47.4105ZM49.161 26.4771H52.6034V20.9692H52.5009C51.3583 22.6587 50.245 24.458 49.161 26.3672V26.4771ZM57.0861 23.1812V21.3647L59.8474 19.4312H61.7297V30H59.84V21.3354H59.7155L57.0861 23.1812Z" fill="white"/>
<rect opacity="0.35" x="351.833" y="17.8333" width="21" height="10.3333" rx="2.16667" stroke="white"/>
<path opacity="0.4" d="M374.333 21V25C375.138 24.6612 375.662 23.8731 375.662 23C375.662 22.1269 375.138 21.3388 374.333 21Z" fill="white"/>
<rect x="353.333" y="19.3333" width="18" height="7.33333" rx="1.33333" fill="white"/>
<path fill-rule="evenodd" clip-rule="evenodd" d="M338.667 19.6152C340.892 19.6153 343.031 20.4694 344.644 22.001C344.765 22.1192 344.959 22.1177 345.079 21.9976L346.239 20.8273C346.3 20.7664 346.334 20.6839 346.333 20.598C346.333 20.5122 346.298 20.4301 346.237 20.3699C342.005 16.3176 335.329 16.3176 331.097 20.3699C331.035 20.43 331.001 20.5121 331 20.598C330.999 20.6838 331.033 20.7663 331.094 20.8273L332.255 21.9976C332.374 22.1179 332.568 22.1194 332.69 22.001C334.302 20.4693 336.442 19.6152 338.667 19.6152ZM338.667 23.4227C339.889 23.4227 341.068 23.8766 341.974 24.6964C342.097 24.8127 342.29 24.8102 342.409 24.6907L343.569 23.5204C343.63 23.459 343.663 23.3757 343.663 23.2892C343.662 23.2027 343.626 23.1201 343.564 23.0599C340.805 20.4955 336.532 20.4955 333.773 23.0599C333.71 23.1201 333.675 23.2027 333.674 23.2893C333.673 23.3758 333.707 23.4591 333.768 23.5204L334.927 24.6907C335.047 24.8102 335.24 24.8127 335.362 24.6964C336.268 23.8772 337.446 23.4233 338.667 23.4227ZM340.989 25.9846C340.991 26.0714 340.957 26.155 340.895 26.2158L338.89 28.2378C338.831 28.2972 338.751 28.3307 338.667 28.3307C338.583 28.3307 338.503 28.2972 338.445 28.2378L336.439 26.2158C336.377 26.155 336.343 26.0713 336.345 25.9845C336.347 25.8977 336.384 25.8156 336.449 25.7574C337.729 24.6751 339.605 24.6751 340.886 25.7574C340.95 25.8156 340.988 25.8978 340.989 25.9846Z" fill="white"/>
<path fill-rule="evenodd" clip-rule="evenodd" d="M325 17.6667H324C323.448 17.6667 323 18.1144 323 18.6667V27.3333C323 27.8856 323.448 28.3333 324 28.3333H325C325.552 28.3333 326 27.8856 326 27.3333V18.6667C326 18.1144 325.552 17.6667 325 17.6667ZM319.333 20H320.333C320.886 20 321.333 20.4477 321.333 21V27.3333C321.333 27.8856 320.886 28.3333 320.333 28.3333H319.333C318.781 28.3333 318.333 27.8856 318.333 27.3333V21C318.333 20.4477 318.781 20 319.333 20ZM315.667 22.3333H314.667C314.114 22.3333 313.667 22.781 313.667 23.3333V27.3333C313.667 27.8856 314.114 28.3333 314.667 28.3333H315.667C316.219 28.3333 316.667 27.8856 316.667 27.3333V23.3333C316.667 22.781 316.219 22.3333 315.667 22.3333ZM311 24.3333H310C309.448 24.3333 309 24.781 309 25.3333V27.3333C309 27.8856 309.448 28.3333 310 28.3333H311C311.552 28.3333 312 27.8856 312 27.3333V25.3333C312 24.781 311.552 24.3333 311 24.3333Z" fill="white"/>
</svg>
